<?xml version="1.0" encoding="utf-8"?>
<!-- Generator: Adobe Illustrator 15.1.0, SVG Export Plug-In . SVG Version: 6.00 Build 0)  -->
<!DOCTYPE svg PUBLIC "-//W3C//DTD SVG 1.1//EN" "http://www.w3.org/Graphics/SVG/1.1/DTD/svg11.dtd">
<svg version="1.1" id="Layer_1" xmlns="http://www.w3.org/2000/svg" xmlns:xlink="http://www.w3.org/1999/xlink" x="0px" y="0px"
	 width="500px" height="500px" viewBox="0 0 500 500" enable-background="new 0 0 500 500" xml:space="preserve">
<g>
	<g>
		<path fill="#6E6F72" d="M166.816,304.688c2.142,0,4.283,0,6.425,0c27.022-0.437,49.946,10.912,76.636,11.015
			c26.493,0.101,49.751-9.563,76.177-11.015c3.672,0,7.341,0,11.014,0c13.972,0.859,27.207,5.055,39.006,7.801
			c3.973,0.926,8.641,0.468,11.469,3.673c-0.734,6.026,1.79,9.554,0.461,14.686c-1.071,4.136-5.933,5.538-7.803,9.174
			c-4.442,8.644-5.313,18.628-7.799,27.076c-2.547,8.649-6.188,16.134-12.392,22.027c-17.738,16.862-56.526,16.531-75.255,0.919
			c-6.222-5.187-12.214-14.105-16.062-22.946c-5.013-11.502-4.491-30.843-22.488-27.076c-7.115,8.179-7.278,19.404-11.93,28.454
			c-9.02,17.541-21.855,32.626-47.726,33.961c-3.669,0-7.341,0-11.013,0c-15.595-2.3-30.407-5.564-37.628-16.522
			c-3.524-5.348-5.861-13.269-8.262-20.194c-2.544-7.344-3.773-15.325-6.425-22.026c-2.535-6.412-10.002-9.802-10.553-17.438
			c0-3.824,0-7.648,0-11.472C129.669,310.37,147.061,306.347,166.816,304.688z M136.07,327.633
			c-3.896,8.172-1.022,20.314,0.46,27.073c1.721,7.856,3.75,17.511,7.341,23.404c14.513,23.812,60.674,19.511,76.637-4.127
			c2.925-4.337,6.077-11.575,8.719-18.358c2.081-5.338,5.789-15.059,3.671-22.484c-4.322-15.149-32.211-20.209-51.854-19.274
			C162.292,314.759,141.818,315.578,136.07,327.633z M270.067,345.99c2.103,9.993,7.693,21.589,12.391,28.451
			c12.379,18.075,41.844,25.13,62.869,15.602c12.899-5.845,17.713-19.183,21.105-35.337c1.044-4.947,4.288-18.588,0.461-27.073
			c-5.812-12.89-34.912-15.195-55.525-13.767C287.426,315.526,264.963,321.718,270.067,345.99z"/>
	</g>
	<g>
		<path fill="#6E6F72" d="M384.669,321.529c-5.305,2.126-20.23,5.906-28.36,1.736c-13.126-0.758-19.001,5.789-28.357,9.261
			c-15.089,5.602-39.44,6.918-56.729,0.578c2.14,1.527,4.534,2.799,6.95,4.053c-0.419,2.109-4.413,0.991-5.791,0.583
			c1.8,1.675,4.567,2.371,8.104,2.312c-0.396,2.494-2.563,3.22-5.208,3.472c3.372,1.809,7.584-0.51,9.84-1.733
			c-1.461,3.162-4.508,4.754-8.101,5.78c3.611,0.907,8.764-1.635,11.574-3.471c0.155,1.525-2.74,4.972-4.63,6.369
			c1.937-0.005,4.849-4.019,7.525-5.207c-1.597,2.457-2.091,6.013-4.053,8.101c2.064,0.312,5.666-2.819,6.368-5.792
			c0.644,2.636-0.151,7.132,1.156,10.42c1.118-3.321,2.039-6.838,3.472-9.842c0.855,3.97,1.624,8.026,2.314,12.159
			c1.194-3.632,0.28-9.369,2.316-12.159c1.108,4.874,2.225,9.74,4.628,13.316c0.364-2.304-0.251-8.609,0-12.74
			c2.364,4.587,3.092,10.809,7.523,13.32c0.057-3.345-3.08-8.493-2.892-13.896c2.987,5.502,7.25,9.729,12.154,13.316
			c-0.91-3.346-4.634-8.867-5.787-13.899c4.103,4.202,12.946,8.664,20.838,11.001c-3.17-3.584-9.045-9.47-12.733-14.471
			c5.414,4.423,14.369,10.322,25.466,10.999c-6.231-3.806-12.982-7.089-17.362-12.737c7.196,4.019,21.973,6.557,32.412,3.476
			c-9.817-0.023-16.843-2.838-23.733-5.789c11.604,2.25,28.771,0.954,37.624-4.633c-6.076,0.179-17.724,1.305-25.465,0
			C367.255,332.672,379.2,330.338,384.669,321.529z"/>
	</g>
	<g>
		<path fill="#6E6F72" d="M117.382,321.529c5.306,2.126,20.234,5.906,28.362,1.736c13.125-0.758,19.001,5.789,28.362,9.261
			c15.084,5.602,39.433,6.918,56.723,0.578c-2.139,1.527-4.533,2.799-6.946,4.053c0.421,2.109,4.408,0.991,5.79,0.583
			c-1.802,1.675-4.57,2.371-8.104,2.312c0.399,2.494,2.562,3.22,5.211,3.472c-3.37,1.809-7.588-0.51-9.843-1.733
			c1.463,3.162,4.508,4.754,8.107,5.78c-3.614,0.907-8.771-1.635-11.579-3.471c-0.156,1.525,2.739,4.972,4.629,6.369
			c-1.937-0.005-4.848-4.019-7.521-5.207c1.594,2.457,2.09,6.013,4.05,8.101c-2.063,0.312-5.663-2.819-6.365-5.792
			c-0.645,2.636,0.15,7.132-1.159,10.42c-1.116-3.321-2.037-6.838-3.472-9.842c-0.856,3.97-1.622,8.026-2.317,12.159
			c-1.192-3.632-0.28-9.369-2.315-12.159c-1.11,4.874-2.226,9.74-4.629,13.316c-0.362-2.304,0.252-8.609,0-12.74
			c-2.365,4.587-3.087,10.809-7.524,13.32c-0.056-3.345,3.08-8.493,2.894-13.896c-2.988,5.502-7.247,9.729-12.156,13.316
			c0.909-3.346,4.637-8.867,5.788-13.899c-4.104,4.202-12.949,8.664-20.834,11.001c3.169-3.584,9.041-9.47,12.731-14.471
			c-5.416,4.423-14.366,10.322-25.466,10.999c6.225-3.806,12.979-7.089,17.363-12.737c-7.196,4.019-21.975,6.557-32.413,3.476
			c9.814-0.023,16.843-2.838,23.731-5.789c-11.601,2.25-28.775,0.954-37.624-4.633c6.077,0.179,17.721,1.305,25.467,0
			C134.797,332.672,122.853,330.338,117.382,321.529z"/>
	</g>
	<g>
		<circle fill="#F0DBD3" cx="250.08" cy="430.985" r="48.231"/>
		<path fill="#808285" d="M266.8,456.162c-0.182-0.209-0.637-0.252-1.49-0.007c-3.116,0.896-6.138,1.826-9.353,2.417
			c-0.741,0.137-1.52,0.279-2.337,0.433v-33.421c0.552-7.879,16.289-6.227,16.519-12.641c0.519-14.501-12.413-5.855-20.058-5.855
			c-7.645,0-19.168-9.163-19.168,5.855c0,6.336,13.161,3.985,15.393,12.581v33.48c-0.818-0.153-1.597-0.293-2.336-0.433
			c-2.893-0.548-7.215-2.44-10.096-1.718c0.514,3.633,6.646,4.922,9.416,5.431c1.759,0.323,11.188,0.397,13.349,0
			c2.883-0.529,5.886-1.41,8.288-3.146C265.876,458.454,267.289,456.72,266.8,456.162z"/>
	</g>
	<path fill="#F0DBD3" d="M355.944,234.45c5.866-4.169,9.49-9.932,9.447-16.28c-0.033-5.5-2.811-10.527-7.401-14.436
		c8.691-15.238,14.648-34.922,14.648-57.129c0-51.629-78.767-141.889-77.06-113.693c1.59,26.272,20.843,69.645,20.843,121.273
		c0,14.161-1.813,26.719-3.945,37.505c-8.262-9.913-25.563-16.669-45.534-16.542c-14.89,0.094-28.25,3.998-37.46,10.128
		c-9.433-3.838-21.014-6.069-33.526-5.99c-5.53,0.035-10.866,0.526-15.917,1.396c-1.196-8.065-2.027-16.915-2.027-26.497
		c0-51.628,19.254-95.001,20.844-121.273c1.707-28.196-77.06,62.064-77.06,113.693c0,24.643,7.331,46.18,17.604,61.978
		c-0.229,1.209-0.355,2.437-0.348,3.681c0.028,4.432,1.611,8.646,4.439,12.482c-11.675,1.959-20.235,8.286-20.188,15.754
		c0.046,7.304,8.299,13.426,19.603,15.388c-2.29,3.325-3.533,6.911-3.509,10.644c0.106,16.957,26.25,30.539,58.391,30.334
		c19.933-0.124,37.483-5.524,47.921-13.651c7.186,8.473,24.11,14.355,43.814,14.231c26.152-0.164,47.283-10.848,47.198-23.859
		c-0.004-0.918-0.127-1.819-0.335-2.709c0.106,0,0.214,0.006,0.323,0.006c18.245-0.115,32.985-9.201,32.915-20.297
		C369.583,243.92,364.196,238.05,355.944,234.45z"/>
	<path fill="#808285" d="M319.469,90.394c0.651,14.465,8.531,38.345,8.531,66.771c0,18.704-4.264,32.364-4.373,39.522
		c3.014-0.688,6.212-1.08,9.541-1.102c1.767-0.011,3.487,0.106,5.178,0.291c6.816-8.315,12.664-23.936,12.664-42.885
		C351.01,124.565,318.771,74.87,319.469,90.394z M142.629,151.605c0,16.512,4.442,30.492,10.094,39.32
		c4.405-2.966,9.706-5.484,15.675-7.409c-1.247-7.255-2.759-16.597-2.759-27.737c0-28.426,7.881-52.306,8.532-66.771
		C174.868,73.484,142.629,123.18,142.629,151.605z"/>
</g>
</svg>
