<?xml version="1.0" encoding="utf-8"?>
<!-- Generator: Adobe Illustrator 15.1.0, SVG Export Plug-In . SVG Version: 6.00 Build 0)  -->
<!DOCTYPE svg PUBLIC "-//W3C//DTD SVG 1.1//EN" "http://www.w3.org/Graphics/SVG/1.1/DTD/svg11.dtd">
<svg version="1.1" id="Layer_1" xmlns="http://www.w3.org/2000/svg" xmlns:xlink="http://www.w3.org/1999/xlink" x="0px" y="0px"
	 width="500px" height="500px" viewBox="0 0 500 500" enable-background="new 0 0 500 500" xml:space="preserve">
<g>
	<g>
		<path fill="#6E6F72" d="M382.739,317.359c-5.51,2.207-21.002,6.134-29.443,1.803c-13.625-0.785-19.726,6.01-29.439,9.615
			c-15.663,5.814-40.944,7.18-58.895,0.602c2.224,1.587,4.71,2.906,7.216,4.206c-0.435,2.19-4.58,1.027-6.013,0.604
			c1.871,1.741,4.744,2.464,8.414,2.403c-0.411,2.588-2.661,3.342-5.406,3.603c3.5,1.878,7.873-0.528,10.215-1.8
			c-1.517,3.287-4.679,4.938-8.409,6.002c3.747,0.942,9.098-1.695,12.016-3.603c0.16,1.581-2.845,5.161-4.806,6.61
			c2.009-0.007,5.031-4.169,7.811-5.405c-1.656,2.552-2.17,6.242-4.208,8.41c2.144,0.324,5.883-2.926,6.612-6.013
			c0.667,2.734-0.157,7.401,1.2,10.816c1.161-3.448,2.117-7.095,3.605-10.215c0.887,4.118,1.684,8.331,2.401,12.621
			c1.238-3.772,0.292-9.727,2.403-12.621c1.152,5.059,2.311,10.108,4.806,13.824c0.378-2.392-0.261-8.941,0-13.227
			c2.454,4.762,3.208,11.219,7.812,13.827c0.056-3.473-3.197-8.817-3.003-14.425c3.101,5.708,7.527,10.1,12.619,13.824
			c-0.945-3.476-4.813-9.209-6.01-14.432c4.261,4.36,13.441,8.995,21.633,11.42c-3.29-3.718-9.388-9.829-13.219-15.022
			c5.62,4.593,14.918,10.716,26.437,11.422c-6.469-3.952-13.478-7.36-18.021-13.225c7.468,4.171,22.808,6.809,33.647,3.606
			c-10.19-0.022-17.489-2.946-24.643-6.01c12.051,2.337,29.874,0.994,39.063-4.811c-6.31,0.188-18.401,1.357-26.438,0
			C364.661,328.93,377.061,326.505,382.739,317.359z"/>
	</g>
	<g>
		<path fill="#6E6F72" d="M105.255,317.359c5.508,2.207,21.005,6.134,29.443,1.803c13.626-0.785,19.728,6.01,29.444,9.615
			c15.66,5.814,40.937,7.18,58.887,0.602c-2.221,1.587-4.707,2.906-7.211,4.206c0.438,2.19,4.577,1.027,6.011,0.604
			c-1.871,1.741-4.744,2.464-8.414,2.403c0.415,2.588,2.659,3.342,5.41,3.603c-3.498,1.878-7.877-0.528-10.217-1.8
			c1.519,3.287,4.68,4.938,8.416,6.002c-3.752,0.942-9.105-1.695-12.021-3.603c-0.162,1.581,2.844,5.161,4.806,6.61
			c-2.011-0.007-5.032-4.169-7.808-5.405c1.655,2.552,2.17,6.242,4.204,8.41c-2.142,0.324-5.878-2.926-6.608-6.013
			c-0.67,2.734,0.157,7.401-1.203,10.816c-1.159-3.448-2.114-7.095-3.604-10.215c-0.888,4.118-1.684,8.331-2.405,12.621
			c-1.238-3.772-0.292-9.727-2.404-12.621c-1.152,5.059-2.311,10.108-4.806,13.824c-0.376-2.392,0.263-8.941,0-13.227
			c-2.455,4.762-3.205,11.219-7.812,13.827c-0.058-3.473,3.198-8.817,3.004-14.425c-3.101,5.708-7.524,10.1-12.62,13.824
			c0.943-3.476,4.813-9.209,6.008-14.432c-4.259,4.36-13.442,8.995-21.629,11.42c3.291-3.718,9.385-9.829,13.217-15.022
			c-5.623,4.593-14.914,10.716-26.437,11.422c6.462-3.952,13.474-7.36,18.025-13.225c-7.47,4.171-22.813,6.809-33.649,3.606
			c10.189-0.022,17.486-2.946,24.637-6.01c-12.043,2.337-29.874,0.994-39.059-4.811c6.309,0.188,18.397,1.357,26.439,0
			C123.335,328.93,110.935,326.505,105.255,317.359z"/>
	</g>
	<g>
		<circle fill="#F0DBD3" cx="243.544" cy="427.591" r="48.231"/>
		<path fill="#808285" d="M260.265,452.768c-0.184-0.209-0.639-0.253-1.491-0.011c-3.117,0.9-6.138,1.827-9.354,2.421
			c-0.74,0.136-1.518,0.277-2.336,0.43v-33.42c0.553-7.877,16.289-6.228,16.519-12.639c0.518-14.505-12.414-5.858-20.058-5.858
			c-7.645,0-19.168-9.162-19.168,5.858c0,6.334,13.16,3.984,15.393,12.578v33.48c-0.819-0.152-1.597-0.292-2.337-0.43
			c-2.892-0.55-7.214-2.441-10.095-1.719c0.513,3.634,6.646,4.922,9.415,5.43c1.76,0.323,11.188,0.396,13.35,0
			c2.881-0.528,5.884-1.407,8.288-3.146C259.34,455.059,260.752,453.323,260.265,452.768z"/>
	</g>
	<path fill="#F0DBD3" d="M349.407,231.052c5.868-4.168,9.49-9.931,9.45-16.278c-0.035-5.499-2.811-10.528-7.403-14.437
		c8.692-15.238,14.648-34.922,14.648-57.127c0-51.63-78.767-141.89-77.061-113.694c1.591,26.272,20.845,69.645,20.845,121.274
		c0,14.16-1.814,26.718-3.944,37.505c-8.265-9.915-25.565-16.67-45.535-16.542c-14.891,0.094-28.251,3.997-37.46,10.127
		c-9.433-3.837-21.014-6.07-33.526-5.989c-5.53,0.035-10.865,0.527-15.917,1.395c-1.197-8.063-2.027-16.913-2.027-26.495
		c0-51.629,19.253-95.001,20.844-121.274c1.707-28.196-77.06,62.064-77.06,113.694c0,24.643,7.331,46.179,17.604,61.977
		c-0.229,1.21-0.355,2.438-0.348,3.682c0.028,4.431,1.611,8.646,4.439,12.482c-11.675,1.957-20.236,8.285-20.188,15.753
		c0.046,7.306,8.299,13.427,19.603,15.388c-2.289,3.325-3.533,6.911-3.509,10.644c0.106,16.958,26.249,30.539,58.391,30.335
		c19.933-0.124,37.483-5.526,47.921-13.652c7.187,8.475,24.112,14.355,43.814,14.232c26.152-0.165,47.283-10.85,47.199-23.86
		c-0.006-0.915-0.127-1.819-0.336-2.707c0.104,0,0.213,0.007,0.321,0.004c18.247-0.116,32.988-9.201,32.917-20.294
		C363.047,240.524,357.658,234.653,349.407,231.052z"/>
	<path fill="#808285" d="M312.935,86.997c0.649,14.465,8.531,38.344,8.531,66.771c0,18.703-4.265,32.363-4.376,39.522
		c3.016-0.688,6.214-1.08,9.543-1.102c1.765-0.012,3.487,0.106,5.177,0.292c6.817-8.315,12.665-23.936,12.665-42.885
		C344.475,121.168,312.236,71.473,312.935,86.997z M136.093,148.208c0,16.512,4.442,30.494,10.094,39.322
		c4.405-2.967,9.707-5.484,15.675-7.411c-1.248-7.253-2.76-16.596-2.76-27.736c0-28.426,7.88-52.306,8.532-66.771
		C168.332,70.088,136.093,119.785,136.093,148.208z"/>
	<g>
		<path fill="#7DD1E9" d="M264.751,133.419c0.301,0.134,0.598,0.264,0.9,0.398c15.555,12.185,28.184,24.643,38.347,39.949
			c3.042,4.584,6.108,11.162,10.604,13.793c2.319,1.358,5.253,1.534,8.506,2.66c1.996,0.692,4.206,2.403,6.305,2.771
			c3.617,0.634,10.705-2.545,15.476-3.417c15.659-2.862,32.484-0.906,50.374,2.775c3.63,25.508-15.839,64.129-34.153,83.886
			c-20.775-16.301-38.582-33.757-43.566-56.217c-2.923-3.204-7.129-3.22-11.265-4.946c-2.871-1.194-5.051-4.458-7.967-5.109
			c-2.256-0.505-13.786,4.61-16.912,5.469c-17.564,4.83-35.853,3.604-56.154,0.596C227.394,186.718,243.742,151.387,264.751,133.419
			z"/>
	</g>
	<g>
		<path fill="#FFFFFF" d="M305.289,175.807c-0.354-0.575-0.702-1.13-1.049-1.67l-62.048,43.937c1.028,0.085,2.05,0.168,3.071,0.235
			L305.289,175.807z"/>
		<path fill="#FFFFFF" d="M311.315,184.753c-0.428-0.479-0.846-0.988-1.252-1.525l-49.928,35.358
			c1.236-0.052,2.469-0.118,3.693-0.208L311.315,184.753z"/>
		<path fill="#FFFFFF" d="M322.535,190.03c-0.84-0.269-1.663-0.48-2.457-0.673l-34.975,24.766c2.188-0.834,4.857-1.881,7.253-2.722
			L322.535,190.03z"/>
		<path fill="#FFFFFF" d="M226.207,216.17c0.946,0.14,1.892,0.276,2.833,0.402l70.11-49.639c-0.393-0.523-0.786-1.051-1.189-1.57
			L226.207,216.17z"/>
		<path fill="#FFFFFF" d="M276.822,143.089c-0.505-0.448-1.021-0.891-1.529-1.333l-35.666,25.254
			c-0.619,1.221-1.225,2.453-1.811,3.692L276.822,143.089z"/>
		<path fill="#FFFFFF" d="M254.46,144.023c-1.41,1.71-2.789,3.485-4.123,5.331l18.434-13.054c-0.527-0.426-1.066-0.851-1.601-1.276
			L254.46,144.023z"/>
		<path fill="#FFFFFF" d="M292.321,158.551c-0.436-0.496-0.878-0.989-1.318-1.484l-63.808,45.181
			c-0.189,0.938-0.374,1.868-0.539,2.793L292.321,158.551z"/>
		<path fill="#FFFFFF" d="M284.856,150.615c-0.47-0.466-0.949-0.935-1.43-1.401l-51.74,36.639c-0.356,1.042-0.699,2.09-1.03,3.135
			L284.856,150.615z"/>
		<path fill="#FFFFFF" d="M394.229,192.142c-0.89-0.179-1.777-0.358-2.66-0.528l-66.505,47.085c0.334,0.566,0.672,1.13,1.022,1.687
			L394.229,192.142z"/>
		<path fill="#FFFFFF" d="M340.071,190.832c-1.93,0.584-3.924,1.222-5.758,1.668l-30.126,21.328c0.587,0.437,1.189,0.829,1.822,1.12
			L340.071,190.832z"/>
		<path fill="#FFFFFF" d="M374.116,259.256c0.919-1.414,1.82-2.859,2.708-4.331l-22.437,15.887c0.521,0.435,1.045,0.869,1.573,1.293
			L374.116,259.256z"/>
		<path fill="#FFFFFF" d="M392.436,219.846c0.28-0.992,0.548-1.986,0.794-2.978l-55.024,38.967c0.448,0.482,0.91,0.959,1.369,1.441
			L392.436,219.846z"/>
		<path fill="#FFFFFF" d="M385.845,237.733c0.52-1.158,1.02-2.318,1.508-3.482l-41.339,29.271c0.492,0.456,0.992,0.904,1.493,1.355
			L385.845,237.733z"/>
		<path fill="#FFFFFF" d="M362.429,188.216c-1.146-0.013-2.285-0.008-3.417,0.014l-43.014,30.451
			c0.541,0.378,1.053,0.808,1.53,1.328L362.429,188.216z"/>
		<path fill="#FFFFFF" d="M379.212,189.556c-0.965-0.134-1.926-0.25-2.887-0.367l-56.064,39.698c0.244,0.625,0.5,1.247,0.764,1.868
			L379.212,189.556z"/>
		<path fill="#FFFFFF" d="M395.423,204.516c0.083-0.855,0.146-1.707,0.188-2.549l-64.467,45.651
			c0.403,0.516,0.811,1.028,1.224,1.541L395.423,204.516z"/>
	</g>
	<path fill="#6E6F72" d="M371.435,323.566c-2.909-6.519-6.497-11.297-11.295-15.028c-4.321-3.36-10.004-6.853-19.406-7.314
		c-1.044-0.052-2.196-0.085-3.381-0.085c-3.513,0-6.27,0.305-8.434,0.931c-2.658,0.775-5.395,2.105-8.35,4.061
		c-4.382,2.884-7.755,6.268-10.092,10.116c-3.126-4.891-6.881-8.483-11.486-11.046c-4.742-2.648-10.774-4.105-16.982-4.105
		c-4.072,0-7.951,0.624-11.524,1.856c-7.962,2.742-14.674,8.366-18.903,15.841c-1.238,2.195-2.226,4.795-2.95,7.757
		c-3.108,0.017-6.201,0.031-9.22,0.094c-0.314-1.104-0.683-2.132-1.103-3.076c-2.907-6.519-6.496-11.292-11.295-15.028
		c-4.32-3.36-10.003-6.853-19.405-7.314c-1.045-0.052-2.195-0.085-3.381-0.085c-3.511,0-6.268,0.305-8.434,0.931
		c-2.666,0.777-5.4,2.107-8.35,4.061c-4.384,2.884-7.757,6.268-10.094,10.116c-3.124-4.891-6.877-8.481-11.482-11.046
		c-4.747-2.648-10.778-4.105-16.984-4.105c-4.074,0-7.952,0.624-11.526,1.856c-7.96,2.744-14.673,8.366-18.902,15.841
		c-3.897,6.898-5.317,18.306-3.622,29.059c2.971,18.926,18.456,30.837,27.709,37.954c1.346,1.036,2.686,2.058,4.018,3.074
		c10.377,7.918,20.18,15.395,28.176,25.206c0.741,0.91,1.85,1.431,3.011,1.431c0.13,0,0.261-0.007,0.393-0.02
		c1.3-0.133,2.446-0.91,3.05-2.067c2.722-5.217,7.469-9.078,12.494-13.17l0.663-0.541c3.044-2.485,6.23-4.868,9.312-7.169
		c1.338-1.001,2.675-1.999,4.007-3.01c8.197-6.232,18.399-13.993,25.093-24.086c3.12-4.688,5.271-9.649,6.534-15.088
		c3.045,0.067,6.111,0.08,9.162,0.101c3.909,17.414,18.391,28.556,27.209,35.339c1.336,1.025,2.664,2.038,3.982,3.045
		c10.392,7.926,20.208,15.413,28.213,25.235c0.824,1.011,2.095,1.547,3.404,1.411c1.298-0.133,2.443-0.91,3.049-2.067
		c2.729-5.221,7.483-9.091,12.517-13.185l0.646-0.528c3.057-2.497,6.263-4.894,9.36-7.205c1.321-0.985,2.642-1.972,3.957-2.972
		c8.202-6.238,18.408-14.006,25.094-24.089c3.79-5.697,6.154-11.795,7.228-18.642C373.794,342.474,374.986,331.529,371.435,323.566z
		 M202.966,383.355c-1.312,0.996-2.633,1.981-3.956,2.97c-3.148,2.352-6.403,4.784-9.575,7.372l-0.656,0.534
		c-4.047,3.296-8.195,6.673-11.478,10.938c-7.796-8.559-16.688-15.342-26.031-22.468c-1.324-1.009-2.655-2.025-3.994-3.056
		c-11.274-8.669-22.473-18.361-24.77-33.002c-1.418-8.99-0.328-18.647,2.709-24.027c3.246-5.735,8.592-10.226,14.672-12.32
		c2.719-0.939,5.83-1.433,8.994-1.433c4.832,0,9.642,1.137,13.202,3.125c5.259,2.926,9.004,7.591,12.144,15.12
		c0.657,1.577,2.266,2.542,3.968,2.372c1.701-0.169,3.091-1.428,3.426-3.104c1.105-5.518,4.405-10.016,10.1-13.763
		c2.298-1.521,4.341-2.531,6.241-3.085c0.98-0.283,2.862-0.622,6.264-0.622c1.05,0,2.071,0.031,3,0.077
		c6.822,0.334,10.937,2.515,15.014,5.686c3.804,2.961,6.57,6.681,8.971,12.062c0.329,0.737,0.61,1.594,0.853,2.533
		c1.013,5.251,0.938,10.89,0.243,16.409c-0.006,0.035-0.021,0.069-0.027,0.108c-0.911,5.651-2.868,10.677-5.991,15.369
		C220.318,370.158,210.696,377.476,202.966,383.355z M365.44,345.605c-0.908,5.794-2.821,10.733-6.023,15.547
		c-5.965,8.995-15.593,16.317-23.321,22.2c-1.297,0.986-2.601,1.957-3.906,2.935c-3.166,2.364-6.44,4.806-9.625,7.41l-0.638,0.52
		c-4.054,3.298-8.209,6.68-11.5,10.952c-7.806-8.566-16.711-15.36-26.067-22.497c-1.312-1-2.632-2.007-3.957-3.026
		c-11.272-8.669-22.473-18.361-24.77-33.008l-0.09-0.64c-0.064-0.436-0.207-0.844-0.401-1.215
		c-0.177-4.766,0.203-9.588,0.617-14.333c0.573-3.125,1.455-5.833,2.585-7.834c3.245-5.735,8.592-10.228,14.672-12.32
		c2.721-0.939,5.83-1.433,8.993-1.433c4.834,0,9.642,1.137,13.202,3.125c5.259,2.924,9.004,7.587,12.143,15.12
		c0.658,1.577,2.262,2.542,3.969,2.372c1.699-0.169,3.091-1.426,3.427-3.101c1.105-5.521,4.407-10.021,10.098-13.766
		c2.304-1.521,4.349-2.531,6.242-3.085c0.979-0.283,2.863-0.622,6.264-0.622c1.051,0,2.071,0.031,3.001,0.077
		c6.823,0.334,10.938,2.515,15.017,5.688c3.803,2.959,6.567,6.677,8.97,12.061C366.19,330.88,366.612,338.114,365.44,345.605z"/>
</g>
</svg>
