<?xml version="1.0" encoding="utf-8"?>
<!-- Generator: Adobe Illustrator 15.1.0, SVG Export Plug-In . SVG Version: 6.00 Build 0)  -->
<!DOCTYPE svg PUBLIC "-//W3C//DTD SVG 1.1//EN" "http://www.w3.org/Graphics/SVG/1.1/DTD/svg11.dtd">
<svg version="1.1" id="Layer_1" xmlns="http://www.w3.org/2000/svg" xmlns:xlink="http://www.w3.org/1999/xlink" x="0px" y="0px"
	 width="500px" height="500px" viewBox="0 0 500 500" enable-background="new 0 0 500 500" xml:space="preserve">
<g>
	<g>
		<path fill="#6E6F72" d="M159.997,290.58c2.143,0,4.284,0,6.425,0c27.022-0.438,49.947,10.911,76.636,11.015
			c26.494,0.101,49.751-9.564,76.178-11.015c3.672,0,7.342,0,11.014,0c13.972,0.858,27.207,5.054,39.006,7.8
			c3.973,0.927,8.64,0.469,11.469,3.672c-0.734,6.028,1.79,9.554,0.461,14.686c-1.07,4.137-5.933,5.54-7.803,9.175
			c-4.442,8.643-5.313,18.627-7.799,27.077c-2.546,8.648-6.188,16.133-12.392,22.025c-17.738,16.864-56.525,16.533-75.257,0.919
			c-6.221-5.185-12.212-14.105-16.06-22.944c-5.016-11.502-4.491-30.843-22.49-27.077c-7.115,8.179-7.279,19.404-11.93,28.454
			c-9.02,17.541-21.855,32.626-47.727,33.961c-3.669,0-7.341,0-11.013,0c-15.593-2.299-30.406-5.563-37.627-16.522
			c-3.525-5.348-5.862-13.268-8.262-20.193c-2.543-7.344-3.773-15.327-6.425-22.027c-2.534-6.411-10.003-9.803-10.554-17.438
			c0-3.823,0-7.648,0-11.472C122.85,296.263,140.242,292.238,159.997,290.58z"/>
	</g>
	<g>
		<circle fill="#F0DBD3" cx="243.714" cy="419.376" r="48.231"/>
		<path fill="#808285" d="M260.434,444.555c-0.184-0.21-0.639-0.254-1.49-0.009c-3.117,0.897-6.139,1.826-9.354,2.417
			c-0.739,0.136-1.519,0.28-2.335,0.432v-33.42c0.552-7.879,16.288-6.226,16.519-12.639c0.518-14.502-12.414-5.857-20.059-5.857
			s-19.168-9.163-19.168,5.857c0,6.334,13.161,3.982,15.393,12.579v33.479c-0.818-0.151-1.598-0.291-2.337-0.432
			c-2.892-0.547-7.215-2.439-10.095-1.717c0.513,3.633,6.646,4.923,9.414,5.431c1.76,0.322,11.189,0.396,13.35,0
			c2.882-0.53,5.884-1.41,8.288-3.146C259.509,446.845,260.921,445.11,260.434,444.555z"/>
	</g>
	<path fill="#F0DBD3" d="M349.576,222.841c5.868-4.169,9.49-9.932,9.449-16.28c-0.034-5.5-2.81-10.526-7.402-14.436
		c8.692-15.238,14.648-34.922,14.648-57.129c0-51.628-78.768-141.889-77.06-113.693c1.59,26.272,20.844,69.645,20.844,121.274
		c0,14.16-1.813,26.718-3.944,37.505c-8.264-9.914-25.565-16.669-45.535-16.543c-14.891,0.094-28.25,3.998-37.461,10.128
		c-9.433-3.838-21.013-6.07-33.525-5.99c-5.529,0.035-10.865,0.527-15.917,1.396c-1.196-8.065-2.028-16.915-2.028-26.496
		c0-51.629,19.254-95.001,20.845-121.274c1.707-28.196-77.06,62.065-77.06,113.693c0,24.643,7.331,46.18,17.604,61.978
		c-0.229,1.209-0.355,2.436-0.348,3.68c0.029,4.433,1.61,8.646,4.438,12.483c-11.674,1.958-20.234,8.285-20.187,15.754
		c0.045,7.303,8.3,13.426,19.603,15.388c-2.29,3.325-3.534,6.91-3.51,10.644c0.106,16.956,26.25,30.538,58.391,30.335
		c19.933-0.125,37.484-5.527,47.921-13.652c7.187,8.472,24.111,14.355,43.813,14.23c26.153-0.164,47.284-10.848,47.201-23.858
		c-0.007-0.92-0.128-1.819-0.338-2.709c0.106,0,0.215,0.005,0.323,0.005c18.247-0.114,32.987-9.2,32.915-20.296
		C363.217,232.312,357.828,226.44,349.576,222.841z"/>
	<path fill="#808285" d="M313.103,78.785c0.65,14.465,8.531,38.345,8.531,66.771c0,18.704-4.264,32.364-4.375,39.522
		c3.015-0.688,6.214-1.08,9.543-1.102c1.766-0.011,3.487,0.106,5.177,0.291c6.817-8.316,12.665-23.936,12.665-42.885
		C344.644,112.957,312.404,63.261,313.103,78.785z M136.262,139.997c0,16.511,4.443,30.492,10.093,39.321
		c4.407-2.966,9.708-5.484,15.675-7.41c-1.248-7.255-2.759-16.597-2.759-27.738c0-28.426,7.882-52.306,8.531-66.771
		C168.501,61.875,136.262,111.571,136.262,139.997z"/>
	<path fill="#FFFFFF" d="M226.784,331.031c-0.68,1.196-1.369,2.424-2.083,3.698c-11.939,21.306-28.028,49.954-68.618,42.411
		c19.743,6.471,47.1-0.499,58.652-17.604c2.924-4.336,6.076-11.574,8.719-18.357C224.465,338.579,225.86,334.94,226.784,331.031z
		 M304.827,378.135c11.556,2.847,24.197,2.233,34.726-2.538c11.041-5.003,16.152-15.502,19.524-28.55
		C348.399,364.036,333.219,380.606,304.827,378.135z"/>
</g>
</svg>
