<?xml version="1.0" encoding="utf-8"?>
<!-- Generator: Adobe Illustrator 15.1.0, SVG Export Plug-In . SVG Version: 6.00 Build 0)  -->
<!DOCTYPE svg PUBLIC "-//W3C//DTD SVG 1.1//EN" "http://www.w3.org/Graphics/SVG/1.1/DTD/svg11.dtd">
<svg version="1.1" id="Layer_1" xmlns="http://www.w3.org/2000/svg" xmlns:xlink="http://www.w3.org/1999/xlink" x="0px" y="0px"
	 width="500px" height="500px" viewBox="0 0 500 500" enable-background="new 0 0 500 500" xml:space="preserve">
<g>
	<path fill="#F4BDE0" d="M180.888,412.377c-1.211,0-2.368-0.543-3.141-1.492c-8.342-10.236-18.568-18.037-29.394-26.297
		c-1.39-1.059-2.788-2.125-4.192-3.205c-9.653-7.424-25.807-19.85-28.906-39.594c-1.768-11.217-0.287-23.117,3.778-30.312
		c4.412-7.799,11.415-13.666,19.719-16.527c3.728-1.283,7.774-1.938,12.024-1.938c6.474,0,12.766,1.52,17.717,4.283
		c4.805,2.678,8.719,6.422,11.979,11.523c2.438-4.012,5.957-7.543,10.53-10.555c3.077-2.035,5.929-3.422,8.71-4.234
		c2.259-0.654,5.135-0.973,8.798-0.973c1.236,0,2.436,0.039,3.526,0.092c9.809,0.48,15.737,4.125,20.243,7.631
		c5.007,3.896,8.75,8.877,11.784,15.676c0.438,0.986,0.823,2.055,1.151,3.209c3.148-0.066,6.376-0.082,9.618-0.096
		c0.755-3.092,1.785-5.803,3.077-8.092c4.412-7.799,11.414-13.668,19.721-16.527c3.727-1.283,7.773-1.938,12.021-1.938
		c6.477,0,12.769,1.52,17.717,4.283c4.806,2.674,8.721,6.42,11.981,11.525c2.438-4.016,5.956-7.545,10.528-10.557
		c3.084-2.037,5.937-3.424,8.711-4.234c2.257-0.654,5.134-0.973,8.798-0.973c1.234,0,2.438,0.039,3.527,0.092
		c9.808,0.48,15.735,4.125,20.242,7.631c5.007,3.893,8.749,8.875,11.784,15.676c3.707,8.307,2.461,19.723,1.753,24.246
		c-1.119,7.143-3.585,13.504-7.539,19.447c-6.976,10.521-17.622,18.621-26.178,25.129c-1.373,1.045-2.749,2.07-4.127,3.102
		c-3.232,2.414-6.577,4.908-9.767,7.516l-0.675,0.551c-5.249,4.271-10.208,8.309-13.055,13.756
		c-0.632,1.207-1.826,2.018-3.182,2.156c-1.365,0.143-2.691-0.418-3.551-1.473c-8.353-10.246-18.591-18.057-29.433-26.326
		c-1.375-1.049-2.76-2.105-4.152-3.176c-9.201-7.076-24.309-18.699-28.387-36.867c-3.183-0.02-6.38-0.031-9.558-0.102
		c-1.317,5.67-3.562,10.846-6.816,15.736c-6.984,10.531-17.626,18.625-26.178,25.131c-1.39,1.053-2.784,2.094-4.181,3.137
		c-3.214,2.402-6.539,4.887-9.714,7.48l-0.692,0.562c-5.243,4.268-10.194,8.299-13.034,13.74c-0.63,1.207-1.825,2.018-3.182,2.156
		C181.16,412.371,181.023,412.377,180.888,412.377z M258.035,336.395c2.008,0,3.716,1.473,4.009,3.465l0.094,0.664
		c2.396,15.279,14.08,25.389,25.84,34.436c1.382,1.061,2.762,2.111,4.128,3.156c9.761,7.443,19.052,14.531,27.193,23.469
		c3.433-4.457,7.769-7.984,11.997-11.426l0.666-0.543c3.322-2.715,6.736-5.264,10.041-7.73c1.36-1.018,2.72-2.033,4.073-3.061
		c8.063-6.135,18.107-13.775,24.329-23.158c3.341-5.023,5.337-10.176,6.285-16.219c1.221-7.816,0.78-15.361-1.15-19.689
		c-2.505-5.615-5.389-9.496-9.356-12.582c-4.255-3.309-8.549-5.584-15.665-5.932c-0.97-0.047-2.035-0.082-3.13-0.082
		c-3.549,0-5.514,0.354-6.534,0.648c-1.976,0.578-4.109,1.633-6.513,3.221c-5.937,3.906-9.38,8.602-10.533,14.357
		c-0.351,1.748-1.802,3.061-3.574,3.236c-1.781,0.176-3.455-0.828-4.141-2.475c-3.275-7.857-7.182-12.723-12.667-15.775
		c-3.714-2.072-8.731-3.26-13.773-3.26c-3.3,0-6.544,0.518-9.382,1.496c-6.343,2.184-11.92,6.869-15.305,12.852
		c-1.261,2.234-2.241,5.291-2.83,8.838c-0.326,1.955-2.018,3.389-3.998,3.389c-0.009,0-0.021,0-0.031,0
		c-5.355-0.043-10.839,0.01-15.994,0.162c-2.029,0.037-3.775-1.381-4.114-3.373c-0.313-1.846-0.763-3.436-1.336-4.721
		c-2.504-5.613-5.39-9.494-9.359-12.584c-4.253-3.307-8.546-5.582-15.663-5.93c-0.969-0.047-2.034-0.082-3.129-0.082
		c-3.549,0-5.512,0.354-6.535,0.65c-1.981,0.578-4.114,1.633-6.511,3.219c-5.94,3.908-9.384,8.602-10.536,14.357
		c-0.35,1.748-1.8,3.061-3.574,3.236c-1.776,0.176-3.455-0.828-4.14-2.475c-3.275-7.854-7.182-12.721-12.669-15.775
		c-3.713-2.072-8.731-3.26-13.771-3.26c-3.301,0-6.546,0.518-9.382,1.496c-6.343,2.184-11.92,6.869-15.306,12.852
		c-3.169,5.613-4.306,15.688-2.827,25.066c2.396,15.273,14.079,25.383,25.84,34.43c1.396,1.072,2.786,2.133,4.166,3.186
		c9.746,7.436,19.022,14.512,27.155,23.438c3.424-4.447,7.752-7.971,11.974-11.408l0.684-0.557c3.308-2.703,6.704-5.238,9.988-7.693
		c1.38-1.029,2.758-2.057,4.127-3.098c8.064-6.131,18.101-13.768,24.332-23.16c3.258-4.895,5.3-10.139,6.25-16.035
		c0.323-2.012,2.069-3.469,4.122-3.406c5.238,0.158,10.638,0.213,15.843,0.172l0.266-0.002
		C258.018,336.395,258.025,336.395,258.035,336.395z"/>
	<path fill-rule="evenodd" clip-rule="evenodd" fill="#6D6E71" d="M366.184,307.176c-4.255-3.309-8.549-5.584-15.665-5.932
		c-0.97-0.047-2.035-0.082-3.13-0.082c-3.549,0-5.514,0.354-6.534,0.648c-1.976,0.578-4.109,1.633-6.513,3.221
		c-5.937,3.906-9.38,8.602-10.533,14.357c-0.351,1.748-1.802,3.061-3.574,3.236c-1.781,0.176-3.455-0.828-4.141-2.475
		c-3.275-7.857-7.182-12.723-12.667-15.775c-3.714-2.072-8.731-3.26-13.773-3.26c-3.3,0-6.544,0.518-9.382,1.496
		c-6.343,2.184-11.92,6.869-15.305,12.852c-1.261,2.234-2.241,5.291-2.83,8.838c-0.326,1.955-2.018,3.389-3.998,3.389
		c-0.009,0-0.021,0-0.031,0c-5.355-0.043-10.839,0.01-15.994,0.162c-2.029,0.037-3.775-1.381-4.114-3.373
		c-0.313-1.846-0.763-3.436-1.336-4.721c-2.504-5.613-5.39-9.494-9.359-12.584c-4.253-3.307-8.546-5.582-15.663-5.93
		c-0.969-0.047-2.034-0.082-3.129-0.082c-3.549,0-5.512,0.354-6.535,0.65c-1.981,0.578-4.114,1.633-6.511,3.219
		c-5.94,3.908-9.384,8.602-10.536,14.357c-0.35,1.748-1.8,3.061-3.574,3.236c-1.776,0.176-3.455-0.828-4.14-2.475
		c-3.275-7.854-7.182-12.721-12.669-15.775c-3.713-2.072-8.731-3.26-13.771-3.26c-3.301,0-6.546,0.518-9.382,1.496
		c-6.343,2.184-11.92,6.869-15.306,12.852c-3.169,5.613-4.306,15.688-2.827,25.066c2.396,15.273,14.079,25.383,25.84,34.43
		c1.396,1.072,2.786,2.133,4.166,3.186c9.746,7.436,19.022,14.512,27.155,23.438c3.424-4.447,7.752-7.971,11.974-11.408l0.684-0.557
		c3.308-2.703,6.704-5.238,9.988-7.693c1.38-1.029,2.758-2.057,4.127-3.098c8.064-6.131,18.101-13.768,24.332-23.16
		c3.258-4.895,5.3-10.139,6.25-16.035c0.323-2.012,2.069-3.469,4.122-3.406c5.238,0.158,10.638,0.213,15.843,0.172l0.266-0.002
		c0.01,0,0.018,0,0.027,0c2.008,0,3.716,1.473,4.009,3.465l0.094,0.664c2.396,15.279,14.08,25.389,25.84,34.436
		c1.382,1.061,2.762,2.111,4.128,3.156c9.761,7.443,19.052,14.531,27.193,23.469c3.433-4.457,7.769-7.984,11.997-11.426l0.666-0.543
		c3.322-2.715,6.736-5.264,10.041-7.73c1.36-1.018,2.72-2.033,4.073-3.061c8.063-6.135,18.107-13.775,24.329-23.158
		c3.341-5.023,5.337-10.176,6.285-16.219c1.221-7.816,0.78-15.361-1.15-19.689C373.035,314.143,370.151,310.262,366.184,307.176z"/>
	<g>
		<circle fill="#F0DBD3" cx="249.525" cy="435.262" r="50.316"/>
		<path fill="#808285" d="M266.968,461.527c-0.191-0.221-0.667-0.264-1.556-0.008c-3.253,0.934-6.402,1.904-9.759,2.52
			c-0.772,0.145-1.583,0.291-2.438,0.451v-34.863c0.578-8.219,16.995-6.494,17.232-13.188c0.541-15.127-12.948-6.107-20.924-6.107
			c-7.975,0-19.996-9.561-19.996,6.107c0,6.609,13.729,4.158,16.058,13.125v34.926c-0.855-0.16-1.666-0.305-2.438-0.451
			c-3.018-0.57-7.525-2.545-10.533-1.791c0.537,3.789,6.934,5.135,9.824,5.666c1.835,0.336,11.671,0.414,13.925,0
			c3.007-0.553,6.141-1.471,8.646-3.281C266.003,463.916,267.476,462.107,266.968,461.527z"/>
	</g>
	<path fill="#F0DBD3" d="M359.962,230.235c6.121-4.349,9.899-10.361,9.856-16.983c-0.038-5.737-2.933-10.981-7.724-15.06
		c9.07-15.896,15.281-36.431,15.281-59.596c0-53.86-82.168-148.019-80.388-118.605c1.659,27.407,21.743,72.653,21.743,126.513
		c0,14.772-1.89,27.873-4.115,39.125c-8.618-10.341-26.667-17.39-47.501-17.257c-15.533,0.098-29.473,4.17-39.078,10.566
		c-9.841-4.004-21.922-6.332-34.975-6.249c-5.769,0.036-11.335,0.549-16.604,1.456c-1.249-8.414-2.115-17.646-2.115-27.641
		c0-53.86,20.084-99.106,21.744-126.513c1.779-29.414-80.389,64.746-80.389,118.605c0,25.707,7.647,48.175,18.365,64.655
		c-0.241,1.262-0.372,2.542-0.364,3.839c0.028,4.624,1.681,9.02,4.631,13.022c-12.18,2.043-21.11,8.644-21.061,16.435
		c0.049,7.619,8.657,14.006,20.45,16.052c-2.389,3.469-3.685,7.209-3.661,11.104c0.11,17.689,27.383,31.857,60.914,31.645
		c20.794-0.131,39.102-5.764,49.991-14.242c7.497,8.84,25.153,14.977,45.708,14.848c27.28-0.172,49.324-11.318,49.238-24.893
		c-0.005-0.957-0.133-1.896-0.351-2.824c0.11,0,0.223,0.006,0.335,0.006c19.038-0.119,34.411-9.598,34.339-21.173
		C374.188,240.115,368.569,233.991,359.962,230.235z"/>
	<path fill="#808285" d="M321.91,79.955c0.68,15.09,8.9,40.002,8.9,69.656c0,19.512-4.448,33.762-4.563,41.23
		c3.143-0.718,6.483-1.127,9.954-1.149c1.844-0.012,3.637,0.111,5.401,0.303c7.11-8.674,13.212-24.97,13.212-44.737
		C354.814,115.604,321.182,63.761,321.91,79.955z M137.431,143.812c0,17.225,4.633,31.809,10.531,41.019
		c4.594-3.094,10.125-5.721,16.352-7.729c-1.301-7.568-2.879-17.313-2.879-28.936c0-29.654,8.22-54.565,8.901-69.655
		C171.063,62.316,137.431,114.159,137.431,143.812z"/>
	<path fill="#FFFFFF" d="M369.97,330.408c-1.245,0-2.307-0.955-2.419-2.219c-0.483-5.51-3.177-9.551-8.005-12.012
		c-6.632-3.381-15.326-2.688-18.64-0.699c-1.151,0.689-2.646,0.316-3.336-0.834c-0.692-1.154-0.317-2.646,0.834-3.336
		c4.947-2.967,15.515-3.461,23.352,0.537c6.33,3.227,10.01,8.732,10.639,15.918c0.117,1.336-0.872,2.518-2.209,2.635
		C370.113,330.406,370.041,330.408,369.97,330.408z"/>
	<path fill="#FFFFFF" d="M229.525,330.408c-1.246,0-2.308-0.955-2.419-2.219c-0.484-5.51-3.177-9.551-8.005-12.012
		c-6.632-3.381-15.326-2.688-18.641-0.699c-1.149,0.689-2.644,0.316-3.335-0.834c-0.692-1.154-0.316-2.646,0.834-3.336
		c4.948-2.967,15.515-3.461,23.35,0.537c6.331,3.227,10.011,8.732,10.641,15.918c0.118,1.336-0.872,2.518-2.209,2.635
		C229.669,330.406,229.597,330.408,229.525,330.408z"/>
</g>
</svg>
